<svg xmlns="http://www.w3.org/2000/svg" version="1.1" xmlns:xlink="http://www.w3.org/1999/xlink" xmlns:svgjs="http://svgjs.dev/svgjs" width="100%" height="100%" viewBox="0 0 1000 600"><rect width="1000" height="600" x="0" y="0" fill="#ffffff"/><g><rect width="333.3333333333333" height="333.3333333333333" y="195.75354531186485" fill="#ec8b5e" transform="matrix(0.7203311800383932,0,0,0.7203311800383932,0,38.93743765265788)" x="173.53137207031247"/><path d="M390.45854570671133 388.72276102851026L390.45854570671133 388.72276102851026Q393.74636439085884 388.72276102851026 393.74636439085884 397.64299040927096L393.74636439085884 397.64299040927096Q393.74636439085884 402.4938704350624 389.67701503588944 409.3928998050767Q385.60766568092004 416.2649798416145 379.0859269795783 422.00518787213423Q372.5911376117132 427.71844656917733 364.6410842361107 431.41050525547416Q356.69103086050825 435.1025639417709 349.11826815357836 435.1025639417709L349.11826815357836 435.1025639417709Q337.6648014260155 435.1025639417709 333.2990094028032 429.36235591125114Q328.93321737959104 423.6490972142079 328.93321737959104 412.49207315488786Q328.93321737959104 401.3350490955678 337.6648014260155 374.17012095113614L337.6648014260155 374.17012095113614Q310.9041132837332 373.01129961164156 298.66911588534833 373.01129961164156L298.66911588534833 373.01129961164156L295.94723320420985 373.01129961164156Q292.470769185726 394.5438170594598 292.470769185726 418.20533185193096L292.470769185726 418.20533185193096Q292.470769185726 428.6886225743357 284.4937664766469 432.56932659496874L284.4937664766469 432.56932659496874Q280.8286571238268 434.321033270949 277.43304110577276 435.85714527911625Q274.0374250877188 437.42020662076004 270.15672106708575 437.42020662076004L270.15672106708575 437.42020662076004Q260.45496101550305 437.42020662076004 260.45496101550305 419.9570385279112Q260.45496101550305 402.4938704350624 268.4050143911055 375.1402969562944L268.4050143911055 375.1402969562944Q259.8620756790175 376.11047296145273 253.36728631115236 377.08064896661097Q246.87249694328727 378.0508249717692 243.18043825699053 378.0508249717692Q239.48837957069375 378.0508249717692 239.48837957069375 376.11047296145273L239.48837957069375 376.11047296145273Q239.48837957069375 370.2894169305031 249.00149428794015 364.2797155652171L249.00149428794015 364.2797155652171Q258.7032543395229 358.2430648664546 275.1962464272135 355.1438915166434L275.1962464272135 355.1438915166434Q293.44094519088424 308.7640886033828 319.8243426644939 293.24127252085043L319.8243426644939 293.24127252085043Q329.5261027160766 287.4202164899008 340.3866841071539 287.4202164899008L340.3866841071539 287.4202164899008Q359.7902042103193 287.63581115771376 368.41399092283734 297.90350721230544Q377.0647269688319 308.19815260037376 377.1455749692617 325.1762326906435Q377.25337230316825 342.1543127809132 366.77008158076353 369.31924092534484L366.77008158076353 369.31924092534484Q362.88937756013047 379.80253164774945 359.6015588759831 388.31852102636094Q356.2867908583589 396.86145973844907 356.2867908583589 402.1165797663897Q356.2867908583589 407.3447504608537 357.0683215291808 410.06663314199216Q357.84985220000283 412.78851582313064 360.76038021547765 412.78851582313064L360.76038021547765 412.78851582313064Q365.98855090994164 412.78851582313064 385.39207101310706 392.6034650491433L385.39207101310706 392.6034650491433Q388.89548436506755 388.72276102851026 390.45854570671133 388.72276102851026ZM349.11826815357836 330.8894913876866L349.11826815357836 330.8894913876866Q349.11826815357836 314.0192086313234 336.5059800865208 314.0192086313234L336.5059800865208 314.0192086313234Q323.70504668512694 314.0192086313234 314.48837463612347 324.77199268849415Q305.2717025871199 335.55172607914164 300.2321772269921 353.60777950847614L300.2321772269921 353.60777950847614L344.26738812778706 354.17371551148517Q349.11826815357836 338.6508994289528 349.11826815357836 330.8894913876866ZM419.7524711957958 430.0360892481666L419.7524711957958 430.0360892481666Q419.7524711957958 435.47985461044357 411.9910631545297 435.47985461044357L411.9910631545297 435.47985461044357Q399.75606575614484 435.47985461044357 395.30942573250275 430.7367719185587Q390.835836375384 425.9667398931972 390.835836375384 414.7288678334472L390.835836375384 414.7288678334472Q391.02448170972036 397.2656997405983 400.4297990930603 358.8359502029401Q409.86206580987675 320.406200665282 418.1894098541519 301.7842112329385L418.1894098541519 301.7842112329385Q420.31840719880483 296.93333120714715 424.1991112194379 292.56753918393497Q428.07981524007096 288.2017471607227 434.49375660750616 288.2017471607227L434.49375660750616 288.2017471607227Q437.21563928864475 288.2017471607227 439.0481939650548 291.5165151783468Q440.90769797494147 294.8043338624943 440.90769797494147 299.0623285518001Q440.90769797494147 303.34727257458235 439.34463663329757 311.78241395276405Q437.78157529165367 320.21755533094563 435.4639326126645 331.0781367220229Q433.14628993367535 341.96566744657684 430.2357619182005 354.5779555136344L430.2357619182005 354.5779555136344Q419.7524711957958 402.4938704350624 419.7524711957958 430.0360892481666Z " fill="#ffffff" transform="matrix(0.7203311800383932,0,0,0.7203311800383932,0,38.93743765265788)"/><path d="M665.8943035517201 365.7054677513602L665.8943035517201 365.7054677513602Q647.2244329742825 365.7054677513602 647.6250739737984 356.2770495627544L647.6250739737984 356.2770495627544Q647.6250739737984 347.4362381734385 665.4936625522042 347.4362381734385L665.4936625522042 347.4362381734385Q669.7404571470721 347.4362381734385 673.586610742424 348.3977765722765L673.586610742424 348.3977765722765Q679.916738534774 342.0409393799587 679.916738534774 329.1670085955168L679.916738534774 329.1670085955168Q679.916738534774 306.86465962246916 650.1090481707965 306.86465962246916L650.1090481707965 306.86465962246916Q634.5374679896147 306.86465962246916 620.4883236065931 313.59542841433506L620.4883236065931 313.59542841433506Q615.306700012855 316.0794026113331 611.1667430178582 318.1894452087831Q607.0267860228613 320.32619720620085 603.5812734270252 320.32619720620085Q600.1090514312212 320.32619720620085 600.1090514312212 318.1894452087831L600.1090514312212 318.1894452087831Q600.1090514312212 315.705471011785 603.9552050265733 310.7909414177242Q607.8013586219253 305.90312122363116 614.7190932135651 300.88175402969944L614.7190932135651 300.88175402969944Q632.4274253921648 288.59543004454736 654.9167401649864 288.38175484480564L654.9167401649864 288.38175484480564Q684.3504989294158 288.38175484480564 698.1859681126957 300.1338908306032L698.1859681126957 300.1338908306032Q710.1250698982674 309.9362406187571 710.1250698982674 326.84329079832503L710.1250698982674 326.84329079832503Q710.1250698982674 346.4746997746005 690.8943019215077 356.86465636204434L690.8943019215077 356.86465636204434Q709.3504972992034 367.44157874926213 712.7960098950396 382.82619313066994L712.7960098950396 382.82619313066994Q713.9712234936193 388.19478252418196 713.9712234936193 397.0355939134979Q713.9712234936193 405.9031147027815 709.1635314994294 413.78238769325947Q704.3558395052395 421.6616606837374 696.2628913150198 427.0569594772172L696.2628913150198 427.0569594772172Q680.1037043345481 437.4202066646932 654.9167401649864 437.4202066646932L654.9167401649864 437.4202066646932Q637.0481515865805 437.4202066646932 615.119734213081 429.3539678744412L615.119734213081 429.3539678744412Q600.5096924307371 423.9586690809614 593.5652484391295 416.4800370899993L593.5652484391295 416.4800370899993Q590.1197358432934 412.82084929442146 590.1998640431965 409.1616614988436Q590.3067016430674 405.50247370326565 593.8590518387745 405.50247370326565Q597.4114020344814 405.50247370326565 607.4274270223771 408.01315730023157L607.4274270223771 408.01315730023157L607.4274270223771 407.8261915004575Q607.4274270223771 392.8155087185978 610.8729396182132 377.05696273764204L610.8729396182132 377.05696273764204Q616.8558452109829 349.54628077088853 624.7351182014608 333.9747005897067L624.7351182014608 333.9747005897067Q633.2019979912286 316.667009410623 642.2297751803186 316.667009410623L642.2297751803186 316.667009410623Q644.7404587772844 316.667009410623 644.7404587772844 325.3208550001649Q644.7404587772844 333.9747005897067 643.0844759792857 343.0024777787967Q641.4552025812546 352.05696436785433 639.6389633834495 360.79093815729937Q637.7960147856768 369.5516213467122 636.1667413876457 376.65632173812617Q634.5374679896147 383.7877315295078 634.5374679896147 386.8593125257959L634.5374679896147 386.8593125257959L632.6143911919388 415.8924302907094Q643.9658861782206 418.96401128699745 651.8451591686984 418.96401128699745Q659.7244321591763 418.96401128699745 666.0812693514941 416.2663618902576L666.0812693514941 416.2663618902576Q682.0267811322241 409.5355930983917 682.0267811322241 392.8155087185978L682.0267811322241 392.8155087185978Q682.0267811322241 382.82619313066994 680.1037043345481 376.2823901385781Q678.1806275368721 369.7385871464862 673.1859697429081 364.7439293525222L673.1859697429081 364.7439293525222Q668.7789187482341 365.7054677513602 665.8943035517201 365.7054677513602ZM774.1475016208965 412.23324249513155L774.1475016208965 412.23324249513155Q789.1581844027562 412.23324249513155 803.1806193858101 400.32085010952767L803.1806193858101 400.32085010952767Q808.3889523795159 395.88708971488586 811.647499175578 392.14777371940477Q814.9327553716078 388.381748323956 816.6421569695418 388.381748323956L816.6421569695418 388.381748323956Q819.3398063662818 388.381748323956 819.3398063662818 393.7770471174358Q819.3398063662818 399.1723459109156 816.4551911697679 405.7962771029106Q813.5705759732539 412.4202082949056 806.839807181388 418.7770454872234L806.839807181388 418.7770454872234Q790.3066886013681 434.34862566840525 761.4605366362287 434.34862566840525L761.4605366362287 434.34862566840525Q738.5705808638911 434.34862566840525 730.3173762738651 417.8155070883854L730.3173762738651 417.8155070883854Q727.4327610773511 412.0462766953575 727.4327610773511 401.28238850836567Q727.4327610773511 390.5185003213737 731.6528462722512 378.873201935447Q735.8729314671511 367.2279035495203 742.897503658662 358.78773315972023Q749.9220758501729 350.3208533699525 759.1635282390046 345.5932895756657Q768.3782712278686 340.8924351813466 778.8750654151833 340.8924351813466Q789.3451502025302 340.8924351813466 795.0075429956872 346.0740587750847Q800.696645188812 351.2823917687905 800.696645188812 359.5355963588165Q800.696645188812 367.8155103488102 796.5566881938151 373.1039715424191Q792.4167311988182 378.3924327360281 785.8729282067264 381.94478293173506Q779.3558346146023 385.4971331274421 771.3697240242535 388.3016201240529Q763.3836134339047 391.07939772069597 755.6913062432008 394.5516197164998L755.6913062432008 394.5516197164998L755.6913062432008 399.35931171068967Q755.8782720429748 406.2770463023296 761.4605366362287 409.1616614988436Q767.0428012294825 412.0462766953575 774.1475016208965 412.23324249513155ZM770.8889548248345 358.0131605606564L770.8889548248345 358.0131605606564Q760.8729298369387 358.0131605606564 757.0267762415868 381.277047932542L757.0267762415868 381.277047932542Q761.0866050366806 378.57939853580217 764.6389552323875 376.4693559383521Q768.1913054280946 374.3593133409021 770.8889548248345 372.4362365432261L770.8889548248345 372.4362365432261Q776.6581852178623 368.1894419483583 776.8451510176365 362.8208525548463L776.8451510176365 362.8208525548463Q776.8451510176365 358.0131605606564 770.8889548248345 358.0131605606564ZM853.5812571249012 340.03773438237954Q866.4551879093431 339.9308967825086 872.8120251016609 344.84542637656955Q879.1421528940109 349.7332465706626 879.1421528940109 358.8678613596235Q879.1421528940109 368.00247614858426 873.666725900628 374.4394415408052Q868.1912989072449 380.90311633299393 860.3120259167671 383.5740563297661L860.3120259167671 383.5740563297661Q865.8942905100209 389.343286722794 870.4081791045659 395.32619231556373Q874.9220676991109 401.28238850836567 874.9220676991109 407.8261915004575L874.9220676991109 407.8261915004575Q874.9220676991109 420.7001222848994 864.7190769114411 427.72469447641026Q854.5427955237391 434.749266667921 836.3536941457206 434.749266667921Q818.1913021676697 434.749266667921 809.1635249785799 427.5377286766361Q800.1090383895221 420.3261906853513 800.1090383895221 411.1915758963904Q800.1090383895221 402.05696110742963 804.622926984067 394.5516197164998Q809.1635249785799 387.0462783255699 814.3451485723178 387.0462783255699L814.3451485723178 387.0462783255699Q817.4167295686058 387.0462783255699 818.7789089669596 389.2631585228909Q820.1143789653457 391.4800387202117 823.7735667609236 402.05696110742963L823.7735667609236 402.05696110742963Q825.1090367593098 405.9031147027815 828.1806177555977 409.34862729861766L828.1806177555977 409.34862729861766Q835.3120275469795 417.2279002890955 850.6966419283872 417.2279002890955L850.6966419283872 417.2279002890955Q848.3729241311954 409.93623409790746 843.2981381373282 404.64777290429856Q838.1966427434934 399.35931171068967 833.2019849495294 394.36465391672573Q828.1806177555977 389.343286722794 824.3344641602458 383.680893929637Q820.4883105648938 378.0185011364799 820.4883105648938 370.32619394577614L820.4883105648938 370.32619394577614Q820.4883105648938 356.46401536252847 830.8782671523376 347.81016977298657L830.8782671523376 347.81016977298657Q840.6806169404915 340.1178625822828 853.5812571249012 340.03773438237954ZM852.8066845258372 375.69478333928816L852.8066845258372 375.69478333928816Q860.4989917165411 367.44157874926213 860.4989917165411 362.4202115553304L860.4989917165411 362.4202115553304Q860.4989917165411 360.1232031581063 858.8697183185101 358.30696396030123Q857.240444920479 356.46401536252847 854.1421545242233 356.46401536252847Q851.0705735279353 356.46401536252847 848.2927959312923 357.23858796159243Q845.4883089346814 358.0131605606564 843.7789073367472 358.3870921602045L843.7789073367472 358.3870921602045Q843.7789073367472 365.7054677513602 852.8066845258372 375.69478333928816ZM895.4081774743535 422.7300366824462Q893.1912972770325 417.62854128861136 892.2297588781946 410.79093489687455Q891.2682204793566 403.9800379051055 891.2682204793566 391.66700451998577Q891.2682204793566 379.353971134866 895.8889466737725 358.3870921602045L895.8889466737725 358.3870921602045L887.2351010842307 358.3870921602045Q884.9113832870388 358.3870921602045 884.9113832870388 356.46401536252847L884.9113832870388 356.46401536252847Q884.9113832870388 351.8432891681126 885.7927934859737 348.8785457716955Q886.6474942849408 345.8870929753107 889.9327504809705 342.0409393799587L889.9327504809705 342.0409393799587L894.5267672754187 342.0409393799587Q897.2244166721586 342.0409393799587 900.2959976684466 341.85397358018463L900.2959976684466 341.85397358018463Q909.5374500572783 312.2332490159812 919.1528340456581 312.2332490159812L919.1528340456581 312.2332490159812Q926.8451412363621 312.42021481575523 929.9167222326499 322.03559880413513L929.9167222326499 322.03559880413513Q930.691294831714 324.733248200875 931.6528332305519 327.80482919716303L931.6528332305519 327.80482919716303L923.7735602400741 341.6670077804106Q937.2350978238059 342.0409393799587 940.7874480195129 342.0409393799587Q944.3397982152197 342.0409393799587 944.6336016148647 342.7086743791517Q944.9274050145096 343.40311877831255 944.9274050145096 344.73858877669863L944.9274050145096 344.73858877669863Q944.9274050145096 348.21081077250244 943.2981316164787 353.3924343662404Q941.64214881848 358.5740579599785 939.53210622103 358.3870921602045L939.53210622103 358.3870921602045L920.3013382442701 357.4255537613665Q916.2682188491443 380.90311633299393 916.2682188491443 396.2877307144016Q916.2682188491443 411.6723450958094 920.701979243786 411.6723450958094L920.701979243786 411.6723450958094Q924.3344576393962 411.6723450958094 933.949841627776 405.60931130313656Q943.5652256161559 399.5462775104637 947.8120202110237 393.96401291720986Q952.0321054059236 388.381748323956 954.7297548026636 388.381748323956L954.7297548026636 388.381748323956Q957.4274041994034 388.381748323956 957.4274041994034 394.92555131604786Q957.4274041994034 401.4693543081397 952.8066780049877 408.3069606998765Q948.1859518105717 415.11785769164555 941.161379619061 420.8069598847703Q934.1635168275178 426.4693526779273 925.5897994378792 430.12854047350515Q917.042791448208 433.787728269083 910.6859542558904 433.787728269083Q904.3558264635403 433.787728269083 900.9904420676074 430.7962754726982Q897.6250576716744 427.8048226763134 895.4081774743535 422.7300366824462ZM1164.7190573488924 387.8208509246339L1164.7190573488924 387.8208509246339Q1168.0043135449223 387.8208509246339 1168.0043135449223 396.6616623139498L1168.0043135449223 396.6616623139498Q1168.0043135449223 401.4693543081397 1163.9711941497962 408.3069606998765Q1159.9113653547024 415.11785769164555 1153.4743999624816 420.8069598847703Q1147.0374345702608 426.4693526779273 1139.1581615797827 430.12854047350515Q1131.2788885893046 433.787728269083 1123.7735471983747 433.787728269083L1123.7735471983747 433.787728269083Q1112.4220522120931 433.787728269083 1108.0951294173224 428.09862607595835Q1103.7682066225511 422.43623328280125 1103.7682066225511 411.37854169616446Q1103.7682066225511 400.32085010952767 1112.4220522120931 373.3977749420641L1112.4220522120931 373.3977749420641Q1085.8729086441776 372.24927074345203 1073.7735504587995 372.24927074345203L1073.7735504587995 372.24927074345203L1071.07590106206 372.24927074345203Q1067.603679066256 393.59008131766177 1067.603679066256 417.04093448932144L1067.603679066256 417.04093448932144Q1067.603679066256 427.4308910767653 1059.724406075778 431.2770446721172L1059.724406075778 431.2770446721172Q1056.0652182802 433.01315567001916 1052.6998338842673 434.5355914681793Q1049.334449488334 436.0847366663071 1045.4882958929825 436.0847366663071L1045.4882958929825 436.0847366663071Q1035.8729119046025 436.0847366663071 1035.8729119046025 418.7770454872234Q1035.8729119046025 401.4693543081397 1043.7788942950483 374.3593133409021L1043.7788942950483 374.3593133409021Q1035.3120145052803 375.3208517397401 1028.8750491130595 376.2823901385781Q1022.4113743208707 377.2439285374161 1018.7788959252605 377.2439285374161Q1015.1197081296826 377.2439285374161 1015.1197081296826 375.3208517397401L1015.1197081296826 375.3208517397401Q1015.1197081296826 369.5516213467122 1024.5481263182883 363.59542515391024L1024.5481263182883 363.59542515391024Q1034.1635103066683 357.6125195611405 1050.5096630869139 354.54093856485247L1050.5096630869139 354.54093856485247Q1068.565217465094 308.57406122040334 1094.7404294334615 293.18944683899554L1094.7404294334615 293.18944683899554Q1104.355813421841 287.42021644596764 1115.119701608833 287.42021644596764L1115.119701608833 287.42021644596764Q1134.3504695855927 287.6338916457094 1142.8974775752636 297.8101730334114Q1151.4711949649022 308.01316382108115 1151.5513231648056 324.8400858007459Q1151.6581607646763 341.6670077804106 1141.2682041772327 368.5900829478742L1141.2682041772327 368.5900829478742Q1137.4220505818807 378.9800395353179 1134.1635037858186 387.420209925118Q1130.8782475897888 395.88708971488586 1130.8782475897888 401.0954227085916Q1130.8782475897888 406.2770463023296 1131.6528201888527 408.97469569906957Q1132.4273927879167 411.6723450958094 1135.3120079844307 411.6723450958094L1135.3120079844307 411.6723450958094Q1140.4936315781688 411.6723450958094 1159.7243995549284 391.66700451998577L1159.7243995549284 391.66700451998577Q1163.1966215507323 387.8208509246339 1164.7190573488924 387.8208509246339ZM1123.7735471983747 330.5024785939029L1123.7735471983747 330.5024785939029Q1123.7735471983747 313.7823942141091 1111.273548013481 313.7823942141091L1111.273548013481 313.7823942141091Q1098.586583028813 313.7823942141091 1089.4519682398522 324.43944480123Q1080.3173534508915 335.12320478831873 1075.2959862569596 353.01850276669234L1075.2959862569596 353.01850276669234L1118.9658552041851 353.57940016601447Q1123.7735471983747 338.1947857846068 1123.7735471983747 330.5024785939029ZM1193.7788845137738 428.7663610751514L1193.7788845137738 428.7663610751514Q1193.7788845137738 434.1616598686312 1186.0865773230698 434.1616598686312L1186.0865773230698 434.1616598686312Q1173.9605097377244 434.1616598686312 1169.5267493430824 429.4608054743121Q1165.1196983484083 424.73324168002534 1165.1196983484083 413.5954218934854L1165.1196983484083 413.5954218934854Q1165.3066641481823 396.2877307144016 1174.6282447369172 358.20012636043043Q1183.949825325652 320.11252200645913 1192.229739315646 301.6563266287634L1192.229739315646 301.6563266287634Q1194.339781913096 296.84863463457344 1198.1859355084475 292.5217118398025Q1202.0320891037995 288.1947890450316 1208.3889262961175 288.1947890450316L1208.3889262961175 288.1947890450316Q1211.0865756928574 288.1947890450316 1212.9028148906623 291.48004524106136Q1214.7190540884676 294.7385920371234 1214.7190540884676 298.95867723202343Q1214.7190540884676 303.2054718268912 1213.1966182903075 311.56551401678814Q1211.6474730921796 319.9255562066851 1209.3504646949555 330.6894443936769Q1207.0267468977636 341.48004198063654 1204.1421317012496 353.98004116553034L1204.1421317012496 353.98004116553034Q1193.7788845137738 401.4693543081397 1193.7788845137738 428.7663610751514Z " fill="#ec8b5e" transform="matrix(0.7203311800383932,0,0,0.7203311800383932,0,38.93743765265788)"/></g></svg>